<svg width="153" height="153" viewBox="0 0 153 153" fill="none" xmlns="http://www.w3.org/2000/svg">
<rect width="153" height="153" rx="7" fill="black"/>
<path d="M83.3012 44.7548V55.7407H75.0552V106.813H62.0615V84.7568H53.8988V85.5116C53.8988 90.4874 52.3162 94.4569 49.1511 97.42C45.986 100.383 41.7936 101.865 36.5739 101.865C32.6868 101.865 29.2718 101.138 26.3288 99.6843C23.3858 98.1747 21.0814 96.0782 19.4155 93.3946C17.8052 90.711 17 87.6361 17 84.1698H29.2441C29.2441 85.9589 29.8271 87.4684 30.9932 88.6983C32.2149 89.9283 33.7974 90.5433 35.7409 90.5433C37.6844 90.5433 39.2115 89.9563 40.322 88.7822C41.4881 87.6081 42.0712 86.0707 42.0712 84.1698C42.0712 82.3249 41.4049 80.7594 40.0722 79.4736C38.795 78.1877 36.8793 77.5447 34.3249 77.5447H30.5768V66.8943H34.3249C36.4906 66.8943 38.212 66.3632 39.4891 65.3009C40.7663 64.1827 41.4048 62.7571 41.4048 61.024C41.4048 59.2349 40.8496 57.8092 39.739 56.747C38.6839 55.6847 37.3235 55.1536 35.6576 55.1536C33.8807 55.1536 32.4092 55.6847 31.2431 56.747C30.1325 57.8092 29.5772 59.179 29.5772 60.8562H17.4998C17.4998 57.5577 18.2494 54.6225 19.7487 52.0507C21.2479 49.479 23.358 47.4942 26.0789 46.0965C28.8554 44.6988 32.0483 44 35.6576 44C40.9329 44 45.153 45.3977 48.3182 48.1931C51.4833 50.9326 53.0659 54.6225 53.0659 59.2629C53.0659 62.2819 52.2885 64.8816 50.7337 67.062C49.2344 69.2424 47.0688 70.8078 44.2368 71.7583V72.0937C45.9027 72.541 47.2909 73.156 48.4015 73.9387H62.0615V44.7548H83.3012Z" fill="white"/>
<path d="M78.8174 95.5518L78.2887 96.6574C78.2887 97.449 79.3868 98.2134 81.583 98.9505C83.8063 99.6602 86.233 100.015 88.863 100.015C91.5201 100.015 94.4348 99.6193 97.6071 98.8276C100.779 98.036 103.531 97.0668 105.863 95.9203C108.222 94.7737 110.161 93.5726 111.679 92.3169C113.225 91.0611 113.997 89.9692 113.997 89.041C113.997 87.8672 112.642 86.7752 109.93 85.7652C107.219 84.7551 103.274 83.6495 98.0952 82.4484C92.9436 81.2199 89.1612 79.6775 86.7481 77.8212C84.3621 75.9649 83.1691 73.7127 83.1691 71.0648C83.1691 68.3895 84.1181 65.8371 86.0161 63.4075C87.914 60.9779 90.3814 58.8213 93.4181 56.9377C96.4819 55.054 99.8169 53.3752 103.423 51.901C110.879 48.8709 117.793 47.3558 124.165 47.3558C126.605 47.3558 128.761 47.5742 130.632 48.011C134.211 48.8572 136 49.9765 136 51.3687C136 52.7609 135.878 53.7164 135.634 54.2351C135.39 54.7265 135.187 55.054 135.024 55.2178C134.888 55.3816 134.699 55.5454 134.455 55.7092C134.238 55.873 134.075 55.9958 133.966 56.0777C132.773 57.0878 129.506 57.7157 124.165 57.9614C122.321 58.0433 121.318 58.1388 121.155 58.248C120.993 58.3572 120.843 58.4118 120.708 58.4118C120.599 58.4118 120.464 58.3026 120.301 58.0842C120.139 57.8658 120.057 57.5109 120.057 57.0195C120.057 56.5282 120.586 55.6273 121.643 54.317C118.335 54.5081 114.797 55.2724 111.028 56.6101C107.287 57.9477 104.033 59.4628 101.267 61.1553C98.5019 62.8205 96.1972 64.4721 94.3535 66.11C92.5098 67.7207 91.5879 68.8672 91.5879 69.5497C91.5879 70.2049 91.7913 70.7508 92.198 71.1876C93.3367 72.4161 96.4955 73.6991 101.674 75.0367C107.043 76.429 110.622 77.5482 112.411 78.3945C114.201 79.2407 115.678 80.0461 116.844 80.8104C118.037 81.5748 118.986 82.3528 119.691 83.1445C121.345 85.0554 122.172 86.9936 122.172 88.9591C122.172 90.9246 121.643 92.7673 120.586 94.4871C119.556 96.2069 117.983 97.8722 115.868 99.4828C113.78 101.093 111.313 102.527 108.466 103.782C102.23 106.594 94.8009 108 86.1787 108C79.8884 108 75.8756 106.321 74.1403 102.963C73.6794 102.117 73.4489 101.244 73.4489 100.343C73.4489 99.4145 73.6523 98.5819 74.059 97.8449C74.4928 97.1078 75.0079 96.5482 75.6044 96.166C76.7703 95.4289 77.5973 95.0604 78.0853 95.0604C78.5734 95.0604 78.8174 95.2242 78.8174 95.5518Z" fill="#555555"/>
</svg>
